<?xml version="1.0" encoding="UTF-8" standalone="no"?>
<!-- Created with Inkscape (http://www.inkscape.org/) -->

<svg
   xmlns:dc="http://purl.org/dc/elements/1.1/"
   xmlns:cc="http://creativecommons.org/ns#"
   xmlns:rdf="http://www.w3.org/1999/02/22-rdf-syntax-ns#"
   xmlns:svg="http://www.w3.org/2000/svg"
   xmlns="http://www.w3.org/2000/svg"
   xmlns:sodipodi="http://sodipodi.sourceforge.net/DTD/sodipodi-0.dtd"
   xmlns:inkscape="http://www.inkscape.org/namespaces/inkscape"
   width="210mm"
   height="297mm"
   viewBox="0 0 210 297"
   version="1.1"
   id="svg8"
   inkscape:version="0.92.4 (5da689c313, 2019-01-14)"
   sodipodi:docname="blacklogo.svg">
  <defs
     id="defs2" />
  <sodipodi:namedview
     id="base"
     pagecolor="#ffffff"
     bordercolor="#666666"
     borderopacity="1.0"
     inkscape:pageopacity="0.0"
     inkscape:pageshadow="2"
     inkscape:zoom="0.35"
     inkscape:cx="-1081.4436"
     inkscape:cy="470.46361"
     inkscape:document-units="mm"
     inkscape:current-layer="layer1"
     showgrid="false"
     inkscape:window-width="1920"
     inkscape:window-height="1017"
     inkscape:window-x="-8"
     inkscape:window-y="-8"
     inkscape:window-maximized="1" />
  <metadata
     id="metadata5">
    <rdf:RDF>
      <cc:Work
         rdf:about="">
        <dc:format>image/svg+xml</dc:format>
        <dc:type
           rdf:resource="http://purl.org/dc/dcmitype/StillImage" />
        <dc:title />
      </cc:Work>
    </rdf:RDF>
  </metadata>
  <g
     inkscape:label="Layer 1"
     inkscape:groupmode="layer"
     id="layer1">
    <path
       style="opacity:1;fill:#808080;stroke-width:0.23654473"
       d="m 103.94299,95.887721 v 9.71e-4 L 31.50095,137.71208 h -9.67e-4 v 0.30777 9.9e-4 6.35971 75.52637 h 9.67e-4 v 1.45486 l 66.661186,38.48628 0.27302,0.15719 2.601974,1.50213 v 0.004 h 0.004 l 2.90297,1.67579 72.44299,-41.82436 v -6.66845 l -9.9e-4,9.9e-4 v -70.314 h 9.9e-4 v -6.36163 -0.3068 h -9.9e-4 z m 0,6.668439 61.16012,35.3103 -55.3812,31.97413 -5.77795,3.33615 h -9.9e-4 -9.7e-4 L 42.782866,137.86646 Z m -66.663119,45.16148 60.882265,35.15014 v 0.3145 69.99733 L 37.279871,218.02948 Z m 133.326229,0 v 70.31281 l -60.88419,35.15109 v -69.99926 -0.31355 z"
       id="path4107"
       inkscape:connector-curvature="0" />
  </g>
</svg>
